<?xml version="1.0" encoding="utf-8"?>
<!-- Generator: Adobe Illustrator 17.0.0, SVG Export Plug-In . SVG Version: 6.00 Build 0)  -->
<!DOCTYPE svg PUBLIC "-//W3C//DTD SVG 1.1//EN" "http://www.w3.org/Graphics/SVG/1.1/DTD/svg11.dtd">
<svg version="1.1" xmlns="http://www.w3.org/2000/svg" xmlns:xlink="http://www.w3.org/1999/xlink" x="0px" y="0px" width="834px" height="228.48px" viewBox="0 0 834 228.48" enable-background="new 0 0 834 228.48" xml:space="preserve">
<path d="M595.92,58.32c0.522,0.08,1.044,0.232,1.566,0.229c5.826-0.028,11.527,0.666,17.064,2.606
	c5.702,1.998,10.08,5.503,13.053,10.791c2.002,3.561,3.119,7.401,3.828,11.38c0.752,4.218,1.008,8.472,0.987,12.76
	c-0.054,11.437,0.092,22.876-0.063,34.312c-0.084,6.187-1.145,12.265-3.721,17.97c-3.078,6.814-8.333,11.161-15.416,13.375
	c-3.38,1.057-6.828,1.827-10.375,1.923c-7.726,0.208-15.453,0.43-23.181,0.473c-13.597,0.076-27.194,0.053-40.791-0.001
	c-3.528-0.014-7.077-0.112-10.579-0.505c-4.831-0.542-9.57-1.577-13.942-3.882c-5.183-2.732-8.595-6.985-10.846-12.303
	c-1.551-3.664-2.407-7.51-3.065-11.4c-0.321-1.901-0.493-3.85-0.5-5.778c-0.044-11.957-0.026-23.915-0.021-35.872
	c0.003-6.825,1.043-13.491,3.679-19.796c0.969-2.317,2.417-4.51,3.992-6.483c3.86-4.836,9.302-7.024,15.138-8.342
	c4.055-0.915,8.174-1.357,12.344-1.229c0.439,0.013,0.883-0.147,1.325-0.227C556.24,58.32,576.08,58.32,595.92,58.32z
	 M565.993,70.08c-4.96,0-9.92-0.031-14.879,0.008c-5.904,0.046-11.809,0.108-17.711,0.251c-2.877,0.069-5.631,0.824-8.344,1.797
	c-4.72,1.693-7.781,4.944-9.552,9.575c-1.366,3.57-1.594,7.329-1.612,11.035c-0.062,12.863,0.136,25.727,0.159,38.591
	c0.005,2.554,0.284,5.049,1.012,7.465c1.401,4.646,3.789,8.509,8.398,10.761c4.179,2.042,8.655,2.737,13.136,2.772
	c19.438,0.153,38.877,0.066,58.316,0.065c4.279,0,8.45-0.55,12.471-2.148c4.757-1.89,7.919-5.206,9.677-9.999
	c1.28-3.492,1.342-7.145,1.36-10.734c0.064-12.943-0.083-25.887-0.203-38.831c-0.02-2.128-0.092-4.295-0.503-6.372
	c-0.959-4.851-3.44-8.721-7.964-11.051c-4.203-2.164-8.747-3.089-13.402-3.147C586.233,69.994,576.113,70.08,565.993,70.08z"/>
<path d="M57.36,162.48c1.319-1.2,2.668-2.368,3.951-3.605c3.302-3.185,6.565-6.412,9.862-9.602c4.324-4.184,8.662-8.353,13-12.523
	c3.905-3.754,7.82-7.498,11.728-11.25c4.109-3.946,8.209-7.902,12.325-11.84c1.863-1.782,3.756-3.532,5.766-5.418
	c-1.848-1.727-3.558-3.324-5.266-4.921c-0.117-0.109-0.227-0.225-0.342-0.337c-2.945-2.865-5.891-5.728-8.834-8.594
	c-3.23-3.145-6.451-6.299-9.686-9.44c-2.087-2.026-4.192-4.033-6.286-6.052c-4.476-4.314-8.945-8.637-13.429-12.942
	c-2.068-1.986-4.167-3.939-6.416-6.062c0.477-0.065,0.724-0.129,0.972-0.129c6.12-0.006,12.24-0.018,18.359,0.023
	c0.482,0.003,1.07,0.274,1.424,0.614c3.312,3.174,6.58,6.395,9.869,9.594c2.429,2.362,4.87,4.712,7.307,7.067
	c2.35,2.272,4.701,4.542,7.051,6.814c2.436,2.355,4.872,4.71,7.308,7.065c2.379,2.299,4.746,4.611,7.142,6.892
	c1.061,1.01,2.181,1.957,3.34,2.992c0.27-0.247,0.561-0.502,0.84-0.771c2.494-2.41,4.977-4.832,7.48-7.233
	c3.448-3.306,6.913-6.596,10.368-9.895c3.6-3.437,7.195-6.88,10.797-10.314c3.284-3.131,6.571-6.258,9.863-9.381
	c1.123-1.066,2.256-2.122,3.406-3.159c0.185-0.167,0.483-0.298,0.729-0.298c6.312-0.016,12.624-0.013,19.163-0.013
	c-1.272,1.287-2.394,2.437-3.535,3.569c-0.305,0.302-0.691,0.522-0.998,0.822c-3.827,3.735-7.641,7.485-11.471,11.217
	c-2.083,2.03-4.191,4.034-6.285,6.052c-4.476,4.314-8.951,8.63-13.427,12.945c-2.18,2.102-4.348,4.217-6.546,6.301
	c-2.509,2.38-5.045,4.731-7.567,7.097c-0.14,0.131-0.255,0.287-0.474,0.537c0.953,0.852,1.89,1.633,2.764,2.479
	c5.418,5.239,10.814,10.5,16.233,15.738c3.953,3.82,7.93,7.615,11.896,11.422c4.023,3.862,8.046,7.725,12.069,11.587
	c3.966,3.807,7.927,7.618,11.902,11.415c0.567,0.542,1.198,1.017,1.974,1.67c-0.502,0.05-0.791,0.104-1.081,0.104
	c-6.04,0.005-12.08,0.019-18.119-0.024c-0.52-0.004-1.161-0.265-1.538-0.625c-3.177-3.027-6.302-6.107-9.448-9.166
	c-2.544-2.473-5.096-4.939-7.645-7.408c-2.492-2.413-4.985-4.824-7.477-7.236c-2.521-2.44-5.04-4.882-7.56-7.322
	c-2.52-2.44-5.042-4.88-7.563-7.32c-2.52-2.44-5.035-4.887-7.566-7.317c-0.396-0.38-0.86-0.689-1.408-1.122
	c-0.846,0.88-1.68,1.786-2.554,2.651c-6.701,6.632-13.405,13.261-20.118,19.88c-4.406,4.345-8.828,8.674-13.245,13.007
	c-3.903,3.829-7.799,7.666-11.736,11.46c-0.344,0.331-0.968,0.52-1.463,0.522c-6.601,0.034-13.203,0.023-19.804,0.023
	C57.36,162.64,57.36,162.56,57.36,162.48z"/>
<path d="M713.653,107.521c-3.841,4.081-7.551,8.044-11.292,11.978c-0.79,0.831-1.718,1.528-2.541,2.329
	c-3.718,3.618-7.415,7.257-11.131,10.877c-2.198,2.141-4.416,4.26-6.624,6.391c-2.38,2.298-4.748,4.608-7.141,6.893
	c-1.745,1.666-3.52,3.299-5.524,5.174c32.892,0,65.422,0,98.036,0c0,3.953,0,7.805,0,11.727c-39.38,0-78.75,0-118.236,0
	c0-3.315,0.119-6.59-0.045-9.85c-0.097-1.915,0.549-3.189,2.151-4.093c0.168-0.095,0.292-0.27,0.435-0.41
	c3.369-3.288,6.726-6.59,10.11-9.862c3.923-3.793,7.87-7.561,11.81-11.336c1.667-1.597,3.348-3.179,5.014-4.777
	c4.082-3.916,8.153-7.844,12.243-11.751c0.883-0.844,1.829-1.622,2.787-2.467c-3.289-2.921-6.453-5.768-9.659-8.569
	c-4.105-3.586-8.252-7.124-12.362-10.704c-2.238-1.95-4.421-3.964-6.657-5.917c-2.856-2.493-5.747-4.945-8.61-7.429
	c-1.464-1.271-2.911-2.563-4.338-3.876c-0.234-0.216-0.456-0.589-0.458-0.892c-0.031-3.755-0.02-7.511-0.02-11.352
	c38.15,0,76.24,0,114.404,0c0,3.85,0,7.702,0,11.649c-30.976,0-61.912,0-93.227,0c1.419,1.313,2.572,2.416,3.766,3.475
	c1.803,1.599,3.637,3.164,5.453,4.748c3.157,2.754,6.317,5.505,9.462,8.272c1.636,1.439,3.23,2.925,4.864,4.367
	c3.26,2.879,6.538,5.737,9.8,8.614c1.574,1.389,3.13,2.797,4.689,4.203C711.897,105.913,712.973,106.901,713.653,107.521z"/>
<path d="M382.777,122.16c0,13.592,0,27.014,0,40.498c-4.629,0-9.173,0-13.806,0c0-34.317,0-68.644,0-103.138
	c0.475,0,0.978,0,1.48,0c27.273,0,54.547-0.048,81.819,0.043c5.076,0.017,10.206,0.114,15.173,1.426
	c3.46,0.914,6.803,2.161,9.472,4.694c2.998,2.845,4.406,6.488,5.258,10.44c1.545,7.166,0.901,14.422,0.874,21.638
	c-0.012,3.187-0.524,6.447-1.329,9.539c-1.601,6.145-5.772,10.075-11.681,12.218c-3.14,1.139-6.361,1.941-9.705,2.159
	c-2.846,0.185-5.694,0.457-8.542,0.462c-22.474,0.038-44.949,0.021-67.423,0.021C383.893,122.16,383.42,122.16,382.777,122.16z
	 M382.858,110.64c0.522,0,0.992,0,1.462,0c21.518,0,43.037-0.006,64.555,0.006c3.251,0.002,6.503,0.062,9.687-0.732
	c3.834-0.956,7.048-2.723,8.983-6.431c1.351-2.589,1.563-5.377,1.597-8.129c0.056-4.525-0.047-9.075-0.489-13.574
	c-0.356-3.62-2.084-6.654-5.6-8.314c-3.145-1.485-6.527-2.133-9.932-2.145c-22.998-0.078-45.996-0.04-68.995-0.04
	c-0.422,0-0.843,0-1.267,0C382.858,84.475,382.858,97.498,382.858,110.64z"/>
<path fill="#F8991D" d="M255.215,151.15c0,3.796,0,7.591,0,11.479c-14.996,0-29.967,0-45.017,0c0-3.837,0-7.689,0-11.62
	c5.014,0,10.001,0,14.948,0c-1.634-1.078-3.288-2.107-4.875-3.23c-2.537-1.794-4.218-4.326-5.744-6.961
	c-2.202-3.803-3.433-7.949-4.14-12.257c-0.185-1.127-0.253-2.285-0.255-3.429c-0.019-10.319,0.001-20.638-0.017-30.956
	c-0.008-4.634,0.537-9.183,1.619-13.698c0.894-3.73,2.21-7.249,4.327-10.441c3.222-4.857,7.84-7.812,13.311-9.545
	c3.377-1.069,6.835-1.704,10.376-1.939c13.519-0.9,27.055-0.319,40.582-0.46c6.679-0.07,13.359-0.039,20.038-0.001
	c3.744,0.021,7.499,0,11.23,0.264c5.93,0.419,11.737,1.444,17.093,4.276c5.024,2.655,8.5,6.705,10.5,11.923
	c1.224,3.193,2.113,6.54,2.847,9.885c0.529,2.409,0.75,4.928,0.768,7.4c0.079,10.958,0.043,21.917,0.029,32.876
	c-0.006,4.336-1.067,8.461-2.616,12.479c-1.273,3.3-3.115,6.249-5.531,8.823c-2.014,2.145-4.356,3.834-7.18,4.91
	c5.064,0,10.128,0,15.261,0c0,3.948,0,7.772,0,11.695c-14.938,0-29.909,0-44.965,0c0-3.818,0-7.67,0-11.547
	c1.579-0.119,3.148-0.243,4.719-0.353c3.938-0.278,7.738-1.14,11.38-2.673c3.347-1.409,6.3-3.387,8.76-6.074
	c2.88-3.145,4.786-6.841,5.478-11.009c0.529-3.183,0.714-6.45,0.745-9.682c0.093-9.518,0.132-19.039-0.009-28.556
	c-0.07-4.669-0.54-9.302-2.732-13.629c-1.769-3.491-4.568-5.678-8.034-7.046c-2.874-1.135-5.882-1.923-9.027-1.983
	c-1.785-0.034-3.568-0.218-5.352-0.22c-19.318-0.017-38.636-0.086-57.953,0.04c-5.17,0.034-10.186,1.112-14.61,4.165
	c-3.465,2.391-5.137,5.878-6.124,9.716c-1.03,4.004-1.004,8.151-1.004,12.269c0,9.239-0.085,18.479,0.036,27.716
	c0.062,4.725,0.688,9.365,3.017,13.669c2.177,4.022,5.254,7.072,9.165,9.291c3.718,2.109,7.768,3.304,12.021,3.762
	C250.551,150.723,252.828,150.92,255.215,151.15z"/>
</svg>
