<?xml version="1.0" encoding="UTF-8" standalone="no"?>
<svg
   xmlns:dc="http://purl.org/dc/elements/1.1/"
   xmlns:cc="http://creativecommons.org/ns#"
   xmlns:rdf="http://www.w3.org/1999/02/22-rdf-syntax-ns#"
   xmlns:svg="http://www.w3.org/2000/svg"
   xmlns="http://www.w3.org/2000/svg"
   xmlns:sodipodi="http://sodipodi.sourceforge.net/DTD/sodipodi-0.dtd"
   xmlns:inkscape="http://www.inkscape.org/namespaces/inkscape"
   id="svg8"
   version="1.1"
   viewBox="0 0 187.87427 28.085777"
   height="28.085777mm"
   width="187.87427mm"
   sodipodi:docname="logoXOROSIII.svg"
   inkscape:version="0.92.2 (5c3e80d, 2017-08-06)">
  <sodipodi:namedview
     pagecolor="#ffffff"
     bordercolor="#666666"
     borderopacity="1"
     objecttolerance="10"
     gridtolerance="10"
     guidetolerance="10"
     inkscape:pageopacity="0"
     inkscape:pageshadow="2"
     inkscape:window-width="1600"
     inkscape:window-height="837"
     id="namedview32"
     showgrid="false"
     inkscape:zoom="2.0349935"
     inkscape:cx="355.03799"
     inkscape:cy="53.075485"
     inkscape:window-x="-8"
     inkscape:window-y="-8"
     inkscape:window-maximized="1"
     inkscape:current-layer="svg8" />
  <defs
     id="defs2" />
  <metadata
     id="metadata5">
    <rdf:RDF>
      <cc:Work
         rdf:about="">
        <dc:format>image/svg+xml</dc:format>
        <dc:type
           rdf:resource="http://purl.org/dc/dcmitype/StillImage" />
        <dc:title></dc:title>
      </cc:Work>
    </rdf:RDF>
  </metadata>
  <g
     transform="translate(-11.140245,-11.570202)"
     id="layer1">
    <g
       transform="matrix(0.26458333,0,0,0.26458333,-4.036255,-3.7853376)"
       id="g3722">
      <path
         d="m 595.92,58.32 c 0.522,0.08 1.044,0.232 1.566,0.229 5.826,-0.028 11.527,0.666 17.064,2.606 5.702,1.998 10.08,5.503 13.053,10.791 2.002,3.561 3.119,7.401 3.828,11.38 0.752,4.218 1.008,8.472 0.987,12.76 -0.054,11.437 0.092,22.876 -0.063,34.312 -0.084,6.187 -1.145,12.265 -3.721,17.97 -3.078,6.814 -8.333,11.161 -15.416,13.375 -3.38,1.057 -6.828,1.827 -10.375,1.923 -7.726,0.208 -15.453,0.43 -23.181,0.473 -13.597,0.076 -27.194,0.053 -40.791,-0.001 -3.528,-0.014 -7.077,-0.112 -10.579,-0.505 -4.831,-0.542 -9.57,-1.577 -13.942,-3.882 -5.183,-2.732 -8.595,-6.985 -10.846,-12.303 -1.551,-3.664 -2.407,-7.51 -3.065,-11.4 -0.321,-1.901 -0.493,-3.85 -0.5,-5.778 -0.044,-11.957 -0.026,-23.915 -0.021,-35.872 0.003,-6.825 1.043,-13.491 3.679,-19.796 0.969,-2.317 2.417,-4.51 3.992,-6.483 3.86,-4.836 9.302,-7.024 15.138,-8.342 4.055,-0.915 8.174,-1.357 12.344,-1.229 0.439,0.013 0.883,-0.147 1.325,-0.227 C 556.24,58.32 576.08,58.32 595.92,58.32 Z m -29.927,11.76 c -4.96,0 -9.92,-0.031 -14.879,0.008 -5.904,0.046 -11.809,0.108 -17.711,0.251 -2.877,0.069 -5.631,0.824 -8.344,1.797 -4.72,1.693 -7.781,4.944 -9.552,9.575 -1.366,3.57 -1.594,7.329 -1.612,11.035 -0.062,12.863 0.136,25.727 0.159,38.591 0.005,2.554 0.284,5.049 1.012,7.465 1.401,4.646 3.789,8.509 8.398,10.761 4.179,2.042 8.655,2.737 13.136,2.772 19.438,0.153 38.877,0.066 58.316,0.065 4.279,0 8.45,-0.55 12.471,-2.148 4.757,-1.89 7.919,-5.206 9.677,-9.999 1.28,-3.492 1.342,-7.145 1.36,-10.734 0.064,-12.943 -0.083,-25.887 -0.203,-38.831 -0.02,-2.128 -0.092,-4.295 -0.503,-6.372 -0.959,-4.851 -3.44,-8.721 -7.964,-11.051 -4.203,-2.164 -8.747,-3.089 -13.402,-3.147 -10.119,-0.124 -20.239,-0.038 -30.359,-0.038 z"
         id="path3699" />
      <path
         d="m 57.36,162.48 c 1.319,-1.2 2.668,-2.368 3.951,-3.605 3.302,-3.185 6.565,-6.412 9.862,-9.602 4.324,-4.184 8.662,-8.353 13,-12.523 3.905,-3.754 7.82,-7.498 11.728,-11.25 4.109,-3.946 8.209,-7.902 12.325,-11.84 1.863,-1.782 3.756,-3.532 5.766,-5.418 -1.848,-1.727 -3.558,-3.324 -5.266,-4.921 -0.117,-0.109 -0.227,-0.225 -0.342,-0.337 -2.945,-2.865 -5.891,-5.728 -8.834,-8.594 -3.23,-3.145 -6.451,-6.299 -9.686,-9.44 -2.087,-2.026 -4.192,-4.033 -6.286,-6.052 -4.476,-4.314 -8.945,-8.637 -13.429,-12.942 -2.068,-1.986 -4.167,-3.939 -6.416,-6.062 0.477,-0.065 0.724,-0.129 0.972,-0.129 6.12,-0.006 12.24,-0.018 18.359,0.023 0.482,0.003 1.07,0.274 1.424,0.614 3.312,3.174 6.58,6.395 9.869,9.594 2.429,2.362 4.87,4.712 7.307,7.067 2.35,2.272 4.701,4.542 7.051,6.814 2.436,2.355 4.872,4.71 7.308,7.065 2.379,2.299 4.746,4.611 7.142,6.892 1.061,1.01 2.181,1.957 3.34,2.992 0.27,-0.247 0.561,-0.502 0.84,-0.771 2.494,-2.41 4.977,-4.832 7.48,-7.233 3.448,-3.306 6.913,-6.596 10.368,-9.895 3.6,-3.437 7.195,-6.88 10.797,-10.314 3.284,-3.131 6.571,-6.258 9.863,-9.381 1.123,-1.066 2.256,-2.122 3.406,-3.159 0.185,-0.167 0.483,-0.298 0.729,-0.298 6.312,-0.016 12.624,-0.013 19.163,-0.013 -1.272,1.287 -2.394,2.437 -3.535,3.569 -0.305,0.302 -0.691,0.522 -0.998,0.822 -3.827,3.735 -7.641,7.485 -11.471,11.217 -2.083,2.03 -4.191,4.034 -6.285,6.052 -4.476,4.314 -8.951,8.63 -13.427,12.945 -2.18,2.102 -4.348,4.217 -6.546,6.301 -2.509,2.38 -5.045,4.731 -7.567,7.097 -0.14,0.131 -0.255,0.287 -0.474,0.537 0.953,0.852 1.89,1.633 2.764,2.479 5.418,5.239 10.814,10.5 16.233,15.738 3.953,3.82 7.93,7.615 11.896,11.422 4.023,3.862 8.046,7.725 12.069,11.587 3.966,3.807 7.927,7.618 11.902,11.415 0.567,0.542 1.198,1.017 1.974,1.67 -0.502,0.05 -0.791,0.104 -1.081,0.104 -6.04,0.005 -12.08,0.019 -18.119,-0.024 -0.52,-0.004 -1.161,-0.265 -1.538,-0.625 -3.177,-3.027 -6.302,-6.107 -9.448,-9.166 -2.544,-2.473 -5.096,-4.939 -7.645,-7.408 -2.492,-2.413 -4.985,-4.824 -7.477,-7.236 -2.521,-2.44 -5.04,-4.882 -7.56,-7.322 -2.52,-2.44 -5.042,-4.88 -7.563,-7.32 -2.52,-2.44 -5.035,-4.887 -7.566,-7.317 -0.396,-0.38 -0.86,-0.689 -1.408,-1.122 -0.846,0.88 -1.68,1.786 -2.554,2.651 -6.701,6.632 -13.405,13.261 -20.118,19.88 -4.406,4.345 -8.828,8.674 -13.245,13.007 -3.903,3.829 -7.799,7.666 -11.736,11.46 -0.344,0.331 -0.968,0.52 -1.463,0.522 -6.601,0.034 -13.203,0.023 -19.804,0.023 -10e-4,-0.08 -10e-4,-0.16 -10e-4,-0.24 z"
         id="path3701" />
      <path
         d="m 713.653,107.521 c -3.841,4.081 -7.551,8.044 -11.292,11.978 -0.79,0.831 -1.718,1.528 -2.541,2.329 -3.718,3.618 -7.415,7.257 -11.131,10.877 -2.198,2.141 -4.416,4.26 -6.624,6.391 -2.38,2.298 -4.748,4.608 -7.141,6.893 -1.745,1.666 -3.52,3.299 -5.524,5.174 32.892,0 65.422,0 98.036,0 0,3.953 0,7.805 0,11.727 -39.38,0 -78.75,0 -118.236,0 0,-3.315 0.119,-6.59 -0.045,-9.85 -0.097,-1.915 0.549,-3.189 2.151,-4.093 0.168,-0.095 0.292,-0.27 0.435,-0.41 3.369,-3.288 6.726,-6.59 10.11,-9.862 3.923,-3.793 7.87,-7.561 11.81,-11.336 1.667,-1.597 3.348,-3.179 5.014,-4.777 4.082,-3.916 8.153,-7.844 12.243,-11.751 0.883,-0.844 1.829,-1.622 2.787,-2.467 -3.289,-2.921 -6.453,-5.768 -9.659,-8.569 -4.105,-3.586 -8.252,-7.124 -12.362,-10.704 -2.238,-1.95 -4.421,-3.964 -6.657,-5.917 -2.856,-2.493 -5.747,-4.945 -8.61,-7.429 -1.464,-1.271 -2.911,-2.563 -4.338,-3.876 -0.234,-0.216 -0.456,-0.589 -0.458,-0.892 -0.031,-3.755 -0.02,-7.511 -0.02,-11.352 38.15,0 76.24,0 114.404,0 0,3.85 0,7.702 0,11.649 -30.976,0 -61.912,0 -93.227,0 1.419,1.313 2.572,2.416 3.766,3.475 1.803,1.599 3.637,3.164 5.453,4.748 3.157,2.754 6.317,5.505 9.462,8.272 1.636,1.439 3.23,2.925 4.864,4.367 3.26,2.879 6.538,5.737 9.8,8.614 1.574,1.389 3.13,2.797 4.689,4.203 1.085,0.98 2.161,1.968 2.841,2.588 z"
         id="path3703" />
      <path
         d="m 382.777,122.16 c 0,13.592 0,27.014 0,40.498 -4.629,0 -9.173,0 -13.806,0 0,-34.317 0,-68.644 0,-103.138 0.475,0 0.978,0 1.48,0 27.273,0 54.547,-0.048 81.819,0.043 5.076,0.017 10.206,0.114 15.173,1.426 3.46,0.914 6.803,2.161 9.472,4.694 2.998,2.845 4.406,6.488 5.258,10.44 1.545,7.166 0.901,14.422 0.874,21.638 -0.012,3.187 -0.524,6.447 -1.329,9.539 -1.601,6.145 -5.772,10.075 -11.681,12.218 -3.14,1.139 -6.361,1.941 -9.705,2.159 -2.846,0.185 -5.694,0.457 -8.542,0.462 -22.474,0.038 -44.949,0.021 -67.423,0.021 -0.474,0 -0.947,0 -1.59,0 z m 0.081,-11.52 c 0.522,0 0.992,0 1.462,0 21.518,0 43.037,-0.006 64.555,0.006 3.251,0.002 6.503,0.062 9.687,-0.732 3.834,-0.956 7.048,-2.723 8.983,-6.431 1.351,-2.589 1.563,-5.377 1.597,-8.129 0.056,-4.525 -0.047,-9.075 -0.489,-13.574 -0.356,-3.62 -2.084,-6.654 -5.6,-8.314 -3.145,-1.485 -6.527,-2.133 -9.932,-2.145 -22.998,-0.078 -45.996,-0.04 -68.995,-0.04 -0.422,0 -0.843,0 -1.267,0 -10e-4,13.194 -10e-4,26.217 -10e-4,39.359 z"
         id="path3705" />
      <path
         style="fill:#f8991d"
         d="m 255.215,151.15 c 0,3.796 0,7.591 0,11.479 -14.996,0 -29.967,0 -45.017,0 0,-3.837 0,-7.689 0,-11.62 5.014,0 10.001,0 14.948,0 -1.634,-1.078 -3.288,-2.107 -4.875,-3.23 -2.537,-1.794 -4.218,-4.326 -5.744,-6.961 -2.202,-3.803 -3.433,-7.949 -4.14,-12.257 -0.185,-1.127 -0.253,-2.285 -0.255,-3.429 -0.019,-10.319 0.001,-20.638 -0.017,-30.956 -0.008,-4.634 0.537,-9.183 1.619,-13.698 0.894,-3.73 2.21,-7.249 4.327,-10.441 3.222,-4.857 7.84,-7.812 13.311,-9.545 3.377,-1.069 6.835,-1.704 10.376,-1.939 13.519,-0.9 27.055,-0.319 40.582,-0.46 6.679,-0.07 13.359,-0.039 20.038,-0.001 3.744,0.021 7.499,0 11.23,0.264 5.93,0.419 11.737,1.444 17.093,4.276 5.024,2.655 8.5,6.705 10.5,11.923 1.224,3.193 2.113,6.54 2.847,9.885 0.529,2.409 0.75,4.928 0.768,7.4 0.079,10.958 0.043,21.917 0.029,32.876 -0.006,4.336 -1.067,8.461 -2.616,12.479 -1.273,3.3 -3.115,6.249 -5.531,8.823 -2.014,2.145 -4.356,3.834 -7.18,4.91 5.064,0 10.128,0 15.261,0 0,3.948 0,7.772 0,11.695 -14.938,0 -29.909,0 -44.965,0 0,-3.818 0,-7.67 0,-11.547 1.579,-0.119 3.148,-0.243 4.719,-0.353 3.938,-0.278 7.738,-1.14 11.38,-2.673 3.347,-1.409 6.3,-3.387 8.76,-6.074 2.88,-3.145 4.786,-6.841 5.478,-11.009 0.529,-3.183 0.714,-6.45 0.745,-9.682 0.093,-9.518 0.132,-19.039 -0.009,-28.556 -0.07,-4.669 -0.54,-9.302 -2.732,-13.629 -1.769,-3.491 -4.568,-5.678 -8.034,-7.046 -2.874,-1.135 -5.882,-1.923 -9.027,-1.983 -1.785,-0.034 -3.568,-0.218 -5.352,-0.22 -19.318,-0.017 -38.636,-0.086 -57.953,0.04 -5.17,0.034 -10.186,1.112 -14.61,4.165 -3.465,2.391 -5.137,5.878 -6.124,9.716 -1.03,4.004 -1.004,8.151 -1.004,12.269 0,9.239 -0.085,18.479 0.036,27.716 0.062,4.725 0.688,9.365 3.017,13.669 2.177,4.022 5.254,7.072 9.165,9.291 3.718,2.109 7.768,3.304 12.021,3.762 2.271,0.244 4.548,0.441 6.935,0.671 z"
         id="path3707" />
    </g>
  </g>
</svg>
